<?xml version="1.0" encoding="UTF-8" standalone="no"?><!DOCTYPE svg PUBLIC "-//W3C//DTD SVG 1.1//EN" "http://www.w3.org/Graphics/SVG/1.1/DTD/svg11.dtd"><svg width="100%" height="100%" viewBox="0 0 596 596" version="1.1" xmlns="http://www.w3.org/2000/svg" xmlns:xlink="http://www.w3.org/1999/xlink" xml:space="preserve" xmlns:serif="http://www.serif.com/" style="fill-rule:evenodd;clip-rule:evenodd;stroke-linejoin:round;stroke-miterlimit:2;"><path d="M396.374,297.638l69.41,-0c-0,92.802 -75.344,168.146 -168.146,168.146c-92.802,-0 -168.146,-75.344 -168.146,-168.146l69.409,-0c-0.079,1.578 -0.117,3.173 -0.117,4.777c0,54.559 44.295,98.854 98.854,98.854c54.559,-0 98.853,-44.295 98.853,-98.854c0,-1.604 -0.038,-3.199 -0.117,-4.777Z"/><path d="M396.374,297.638l69.41,-0c-0,92.802 -75.344,168.146 -168.146,168.146c-92.802,-0 -168.146,-75.344 -168.146,-168.146l69.409,-0c-0.079,1.578 -0.117,3.173 -0.117,4.777c0,54.559 44.295,98.854 98.854,98.854c54.559,-0 98.853,-44.295 98.853,-98.854c0,-1.604 -0.038,-3.199 -0.117,-4.777Zm15.57,16l37.007,-0c-8.007,76.463 -72.745,136.146 -151.313,136.146c-78.568,-0 -143.307,-59.683 -151.313,-136.146l37.007,-0c5.64,58.128 54.701,103.631 114.306,103.631c59.605,-0 108.666,-45.503 114.306,-103.631Z"/><path d="M297.638,0c164.271,0 297.638,133.367 297.638,297.638c-0,164.271 -133.367,297.638 -297.638,297.638c-164.271,-0 -297.638,-133.367 -297.638,-297.638c0,-164.271 133.367,-297.638 297.638,-297.638Zm-0,16c155.44,0 281.638,126.198 281.638,281.638c-0,155.44 -126.198,281.638 -281.638,281.638c-155.44,-0 -281.638,-126.198 -281.638,-281.638c0,-155.44 126.198,-281.638 281.638,-281.638Z"/><path d="M297.638,217.269l-50.22,50.22l50.22,50.22l50.22,-50.22l-50.22,-50.22Z"/><path d="M297.638,217.269l-50.22,50.22l50.22,50.22l50.22,-50.22l-50.22,-50.22Zm-0,22.627l27.593,27.593c-0,0 -16.106,16.106 -27.593,27.593c-0,-0 -27.593,-27.593 -27.593,-27.593l27.593,-27.593Z"/></svg>